<?xml version="1.0" encoding="UTF-8" standalone="no"?>
<!-- Generator: libbsvg 0.5.0 - a native SVG-Library for BeOS -->
<svg
   xmlns:dc="http://purl.org/dc/elements/1.1/"
   xmlns:cc="http://web.resource.org/cc/"
   xmlns:rdf="http://www.w3.org/1999/02/22-rdf-syntax-ns#"
   xmlns:svg="http://www.w3.org/2000/svg"
   xmlns="http://www.w3.org/2000/svg"
   xmlns:sodipodi="http://inkscape.sourceforge.net/DTD/sodipodi-0.dtd"
   xmlns:inkscape="http://www.inkscape.org/namespaces/inkscape"
   sodipodi:docbase="/Users/sideris/Documents/workspace/ditaa"
   sodipodi:docname="joystick.svg"
   inkscape:version="0.41"
   sodipodi:version="0.32"
   id="svg17691"
   height="129.22"
   width="128.89">
  <metadata
     id="metadata17917">
    <rdf:RDF
       id="RDF17919">
      <cc:Work
         id="Work17921"
         rdf:about="">
        <dc:format
           id="format17923">image/svg+xml</dc:format>
        <dc:type
           rdf:resource="http://purl.org/dc/dcmitype/StillImage"
           id="type17925" />
      </cc:Work>
    </rdf:RDF>
  </metadata>
  <defs
     id="defs17915" />
  <sodipodi:namedview
     inkscape:current-layer="svg17691"
     inkscape:window-y="556"
     inkscape:window-x="1679"
     inkscape:cy="28.436369"
     inkscape:cx="144.37480"
     inkscape:zoom="1.4007120"
     inkscape:window-height="538"
     inkscape:window-width="640"
     inkscape:pageshadow="2"
     inkscape:pageopacity="0.0"
     borderopacity="1.0"
     bordercolor="#666666"
     pagecolor="#ffffff"
     id="base" />
  <linearGradient
     gradientTransform="matrix(1.00 0.00 0.00 1.00 484.13 0.00)"
     y2="71.20"
     x2="-369.13"
     y1="71.20"
     x1="-371.27"
     gradientUnits="userSpaceOnUse"
     id="XMLID_1_">
    <stop
       id="stop17694"
       style="stop-color:#303030;"
       offset="0.00" />
    <stop
       id="stop17696"
       style="stop-color:#000000;"
       offset="1.00" />
  </linearGradient>
  <linearGradient
     gradientTransform="matrix(1.00 0.00 0.00 1.00 484.13 0.00)"
     y2="85.81"
     x2="-475.27"
     y1="85.81"
     x1="-477.37"
     gradientUnits="userSpaceOnUse"
     id="XMLID_2_">
    <stop
       id="stop17699"
       style="stop-color:#808080;"
       offset="0.00" />
    <stop
       id="stop17701"
       style="stop-color:#505050;"
       offset="1.00" />
  </linearGradient>
  <linearGradient
     gradientTransform="matrix(1.00 0.00 0.00 1.00 484.13 0.00)"
     y2="114.85"
     x2="-412.44"
     y1="114.85"
     x1="-418.84"
     gradientUnits="userSpaceOnUse"
     id="XMLID_3_">
    <stop
       id="stop17704"
       style="stop-color:#505050;"
       offset="0.00" />
    <stop
       id="stop17706"
       style="stop-color:#303030;"
       offset="1.00" />
  </linearGradient>
  <radialGradient
     gradientTransform="matrix(1.00 0.00 0.00 1.00 484.13 0.00)"
     fy="73.62"
     fx="-469.70"
     r="13.39"
     cy="73.62"
     cx="-469.70"
     gradientUnits="userSpaceOnUse"
     id="XMLID_4_">
    <stop
       id="stop17709"
       style="stop-color:#ff0000;"
       offset="0.00" />
    <stop
       id="stop17711"
       style="stop-color:#ffb2b2;"
       offset="1.00" />
  </radialGradient>
  <radialGradient
     gradientTransform="matrix(1.00 0.00 0.00 1.00 484.13 0.00)"
     fy="71.29"
     fx="-460.87"
     r="11.28"
     cy="71.29"
     cx="-460.87"
     gradientUnits="userSpaceOnUse"
     id="XMLID_5_">
    <stop
       id="stop17714"
       style="stop-color:#ff0000;"
       offset="0.00" />
    <stop
       id="stop17716"
       style="stop-color:#ffb2b2;"
       offset="1.00" />
  </radialGradient>
  <linearGradient
     gradientTransform="matrix(1.00 0.00 0.00 1.00 484.13 0.00)"
     y2="41.68"
     x2="-420.03"
     y1="41.68"
     x1="-428.22"
     gradientUnits="userSpaceOnUse"
     id="XMLID_6_">
    <stop
       id="stop17719"
       style="stop-color:#505050;"
       offset="0.00" />
    <stop
       id="stop17721"
       style="stop-color:#484848;"
       offset="1.00" />
  </linearGradient>
  <linearGradient
     gradientTransform="matrix(1.00 0.00 0.00 1.00 484.13 0.00)"
     y2="40.74"
     x2="-423.27"
     y1="69.03"
     x1="-423.27"
     gradientUnits="userSpaceOnUse"
     id="XMLID_7_">
    <stop
       id="stop17724"
       style="stop-color:#000000; stop-opacity:0.80;"
       offset="0.00" />
    <stop
       id="stop17726"
       style="stop-color:#000000; stop-opacity:0.00;"
       offset="1.00" />
  </linearGradient>
  <path
     id="path17728"
     d=" M128.87 128.24 H0.87 V0.24 H128.87 V128.24 Z"
     stroke="none"
     fill="none" />
  <path
     id="path17730"
     d=" M119.00 78.38 L118.99   78.38 C118.98 80.20 118.25 81.93 116.88 83.31 L74.53 125.65 C73.15 127.03 71.29   127.92 69.34 128.24 L83.95 128.24 L128.89 83.31 L119.00 78.38 Z"
     stroke="none"
     fill-opacity="0.33"
     fill="#000000" />
  <path
     id="path17732"
     d=" M119.00 60.60 L118.98 60.45 C118.80 58.09   117.34 56.00 115.09 54.87 L73.06 33.86 V9.20 C73.06 8.83 72.95 8.47 72.77 8.16   L68.69 1.44 C68.35 0.87 67.75 0.51 67.09 0.48 L56.93 0.00 C56.37 -0.03 55.82 0.19   55.43 0.58 L49.27 6.75 C48.90 7.12 48.69 7.63 48.70 8.16 L48.70 27.07 C48.17 27.41   47.67 27.80 47.24 28.24 L30.77 44.71 C29.20 43.88 27.46 43.10 25.66 42.29 C20.89   40.18 12.91 36.63 12.92 33.24 C12.92 24.20 23.84 19.06 29.33 17.05 C27.15 15.74   26.35 12.84 27.50 10.30 C28.29 8.54 29.33 7.84 27.72 5.92 C27.48 5.64 27.19 5.41   26.88 5.20 C19.71 7.54 0.87 15.45 0.88 33.24 C0.88 44.43 12.84 49.74 20.76 53.26   C21.04 53.38 21.38 53.53 21.77 53.70 L4.87 70.58 C3.80 71.64 3.10 72.96 2.85 74.37   C2.85 74.37 2.84 74.45 2.83 74.54 C2.83 74.55 2.85 76.70 2.86 76.70 L2.79 75.98   V92.50 L2.87 91.79 C2.33 94.75 3.83 97.59 6.70 99.02 L63.50 127.44 C67.01 129.19   71.75 128.42 74.53 125.65 L116.88 83.31 C118.39 81.79 119.14 79.86 119.00 77.86   L119.02 78.16 L119.00 60.60 Z"
     stroke="none"
     fill="#000000" />
  <path
     fill="#505050"
     stroke="none"
     id="path17734"
     d=" M114.99 60.75 C114.92 59.83 114.35 58.98 113.30   58.45 L56.44 30.03 C54.48 29.04 51.59 29.51 50.05 31.07 L7.70 73.41 C7.17 73.93   6.88 74.51 6.79 75.09 L6.77 75.09 V75.15 C6.73 75.43 6.73 75.71 6.78 75.98 L6.78   92.51 L6.80 92.51 C6.59 93.65 7.16 94.79 8.48 95.44 L65.32 123.86 C67.29 124.85   70.17 124.38 71.74 122.82 L114.08 80.48 C114.80 79.77 115.09 78.94 115.04 78.17   L115.06 78.16 V60.75 L114.99 60.75 Z" />
  <path
     fill="#303030"
     stroke="none"
     id="path17736"
     d=" M71.69 122.82 L112.87 81.65 V64.24 L71.70   105.41 V122.82 Z" />
  <path
     id="path17738"
     d=" M114.99 60.75 C115.05 61.53 114.75   62.35 114.05 63.07 L112.88 64.24 V81.65 L114.05 80.48 C114.76 79.76 115.06 78.94   115.01 78.16 L115.02 78.16 V60.75 L114.99 60.75 Z"
     stroke="none"
     fill="url(#XMLID_1_)" />
  <path
     id="path17740"
     d=" M8.87 95.65 V78.24 L8.44 78.03 C7.48   77.54 6.91 76.80 6.77 75.98 C6.77 75.98 6.77 75.98 6.78 75.98 L6.78 92.50 L6.80   92.50 C6.59 93.65 7.16 94.78 8.48 95.44 L8.87 95.65 Z"
     stroke="none"
     fill="url(#XMLID_2_)" />
  <path
     fill="url(#XMLID_3_)"
     stroke="none"
     id="path17742"
     d=" M65.29 106.45 V123.86 C67.26 124.84   70.14 124.38 71.71 122.82 L71.71 105.41 C70.14 106.96 67.26 107.43 65.30 106.45   Z" />
  <path
     id="path17744"
     d=" M8.87 33.24 C8.87 22.25 20.45 16.19 27.00   13.64 C26.82 12.56 26.95 11.40 27.45 10.30 C27.68 9.78 27.93 9.36 28.14 8.96 C21.84   11.01 4.87 17.95 4.88 33.24 C4.88 41.83 14.99 46.32 22.39 49.60 C23.12 49.93 23.95   50.30 24.79 50.68 L27.80 47.68 C26.66 47.12 25.39 46.56 24.03 45.95 C17.25 42.96   8.87 39.23 8.88 33.24 Z"
     stroke="none"
     fill="#505050" />
  <path
     fill="#686868"
     stroke="none"
     id="path17746"
     d=" M65.29 106.45 C67.26 107.43 70.14 106.96 71.71   105.41 L114.05 63.07 C115.61 61.51 115.27 59.43 113.31 58.45 L56.44 30.03 C54.48   29.04 51.59 29.51 50.05 31.07 L7.70 73.41 C6.14 74.96 6.48 77.04 8.45 78.03 L65.29   106.45 Z" />
  <path
     id="path17748"
     d=" M8.72 75.61 C8.72 75.59 8.72 75.57 8.73 75.55   C8.73 75.34 8.87 75.07 9.13 74.82 C9.13 74.82 49.49 31.80 50.60 30.63 C50.41 30.76   50.23 30.90 50.08 31.07 L7.70 73.41 C6.14 74.96 6.48 77.04 8.45 78.03 L65.30 106.45   L9.34 76.24 C8.99 76.06 8.76 75.83 8.73 75.61 Z"
     stroke="none"
     fill="#808080" />
  <path
     id="path17750"
     d=" M86.31 79.98 C75.77 90.52 55.83 93.37 41.79   86.33 C33.66 82.26 29.29 75.77 29.09 68.98 C28.88 76.13 33.27 83.06 41.81 87.33   C55.86 94.37 75.80 91.52 86.35 80.98 C90.79 76.54 92.85 71.43 92.71 66.49 C92.52   71.12 90.45 75.83 86.32 79.98 Z"
     stroke="none"
     fill="#303030" />
  <path
     id="path17752"
     d=" M35.42 55.00 C45.97 44.45 65.91 41.61 79.97   48.64 C94.02 55.68 96.86 69.93 86.33 80.48 C75.77 91.02 55.83 93.87 41.79 86.83   C27.72 79.79 24.88 65.54 35.43 55.00 Z"
     stroke="none"
     fill="#484848" />
  <path
     id="path17754"
     d=" M36.27 70.81 L31.61 71.48 L31.77 72.31 L36.44   71.64 L36.27 70.81 Z"
     stroke="none"
     fill="#dc0000" />
  <path
     id="path17756"
     d=" M37.86 75.26 L33.53 76.77 L33.99 77.53 L38.32   76.02 L37.86 75.26 Z"
     stroke="none"
     fill="#dc0000" />
  <path
     id="path17758"
     d=" M38.11 61.60 L33.74 60.51 L33.30 61.32 L37.67   62.41 L38.11 61.60 Z"
     stroke="none"
     fill="#dc0000" />
  <path
     id="path17760"
     d=" M41.02 79.19 L37.31 81.44 L38.04 82.08 L41.75   79.83 L41.02 79.19 Z"
     stroke="none"
     fill="#dc0000" />
  <path
     id="path17762"
     d=" M45.74 83.57 L43.61 85.70 L44.55 86.17 L46.72   84.01 L47.72 84.42 L48.43 83.71 L46.45 82.86 L45.74 83.57 Z"
     stroke="none"
     fill="#dc0000" />
  <path
     id="path17764"
     d=" M51.68 51.54 L49.83 48.49 L48.74 48.87 L50.59   51.92 L51.68 51.54 Z"
     stroke="none"
     fill="#dc0000" />
  <path
     id="path17766"
     d=" M45.51 82.39 L43.72 81.35 L43.01 82.06 L43.89   82.59 L41.73 84.75 L42.67 85.23 L45.51 82.39 Z"
     stroke="none"
     fill="#dc0000" />
  <path
     id="path17768"
     d=" M83.83 60.21 L88.17 58.70 L87.71 57.94 L83.37   59.45 L83.83 60.21 Z"
     stroke="none"
     fill="#dc0000" />
  <path
     id="path17770"
     d=" M38.47 59.18 L39.42 59.66 L40.71 58.18 L36.92   56.28 L36.22 56.99 L39.09 58.43 L38.47 59.18 Z"
     stroke="none"
     fill="#dc0000" />
  <path
     id="path17772"
     d=" M85.42 64.66 L90.09 63.99 L89.92 63.16 L85.26   63.82 L85.42 64.66 Z"
     stroke="none"
     fill="#dc0000" />
  <path
     id="path17774"
     d=" M80.68 56.28 L84.39 54.03 L83.66 53.39 L79.95   55.64 L80.68 56.28 Z"
     stroke="none"
     fill="#dc0000" />
  <path
     id="path17776"
     d=" M41.41 57.47 L42.95 56.12 L42.00 55.64 L41.22   56.31 L38.34 54.87 L37.63 55.57 L41.41 57.47 Z"
     stroke="none"
     fill="#dc0000" />
  <path
     id="path17778"
     d=" M46.04 54.04 L43.13 51.48 L42.20 52.05 L45.11   54.60 L46.04 54.04 Z"
     stroke="none"
     fill="#dc0000" />
  <path
     id="path17780"
     d=" M36.36 66.15 L31.68 65.93 L31.54 66.78 L36.22   67.00 L36.36 66.15 Z"
     stroke="none"
     fill="#dc0000" />
  <path
     id="path17782"
     d=" M81.29 78.50 L80.34 78.03 L78.80 79.38 L79.75   79.86 L80.54 79.19 L83.42 80.63 L84.13 79.92 L81.29 78.50 Z"
     stroke="none"
     fill="#dc0000" />
  <path
     id="path17784"
     d=" M70.02 83.93 L71.87 86.98 L72.96 86.60 L71.10   83.55 L70.02 83.93 Z"
     stroke="none"
     fill="#dc0000" />
  <path
     id="path17786"
     d=" M83.29 76.32 L82.34 75.84 L81.05 77.32 L84.83   79.22 L85.54 78.51 L82.66 77.07 L83.29 76.32 Z"
     stroke="none"
     fill="#dc0000" />
  <path
     id="path17788"
     d=" M75.66 81.43 L78.56 83.99 L79.49 83.42 L76.58   80.87 L75.66 81.43 Z"
     stroke="none"
     fill="#dc0000" />
  <path
     id="path17790"
     d=" M83.59 73.86 L87.96 74.96 L88.40 74.15 L84.03   73.06 L83.59 73.86 Z"
     stroke="none"
     fill="#dc0000" />
  <path
     id="path17792"
     d=" M85.48 68.47 L85.34 69.32 L90.02 69.54 L90.16   68.69 L85.48 68.47 Z"
     stroke="none"
     fill="#dc0000" />
  <path
     id="path17794"
     d=" M49.32 87.73 L50.42 88.00 L52.17 84.78 L51.08   84.50 L49.32 87.73 Z"
     stroke="none"
     fill="#dc0000" />
  <path
     id="path17796"
     d=" M57.94 50.15 L57.27 46.81 L56.11 46.98 L56.77   50.31 L57.94 50.15 Z"
     stroke="none"
     fill="#dc0000" />
  <path
     id="path17798"
     d=" M56.73 88.92 L57.90 88.97 L58.47 85.58 L57.30   85.52 L56.73 88.92 Z"
     stroke="none"
     fill="#dc0000" />
  <path
     id="path17800"
     d=" M64.96 46.55 L63.79 46.50 L63.23 49.89 L64.40   49.95 L64.96 46.55 Z"
     stroke="none"
     fill="#dc0000" />
  <path
     id="path17802"
     d=" M72.37 47.74 L71.28 47.47 L69.52 50.69 L70.62   50.96 L72.37 47.74 Z"
     stroke="none"
     fill="#dc0000" />
  <path
     id="path17804"
     d=" M63.76 85.32 L64.42 88.66 L65.59 88.49 L64.92   85.16 L63.76 85.32 Z"
     stroke="none"
     fill="#dc0000" />
  <path
     id="path17806"
     d=" M77.98 54.16 L78.70 53.44 L77.81 52.91 L79.98   50.75 L79.03 50.28 L76.19 53.12 L77.98 54.16 Z"
     stroke="none"
     fill="#dc0000" />
  <path
     id="path17808"
     d=" M78.09 49.81 L77.15 49.33 L74.99 51.49 L73.99   51.08 L73.27 51.79 L75.25 52.65 L78.09 49.81 Z"
     stroke="none"
     fill="#dc0000" />
  <path
     id="path17810"
     d=" M13.71 69.92 C12.57 71.06 12.06 72.45 12.29   73.83 C12.53 75.29 13.58 76.58 15.19 77.39 C18.31 78.95 22.75 78.31 25.11 75.96   C26.26 74.82 26.76 73.42 26.55 72.04 C26.32 70.59 25.26 69.29 23.67 68.49 C20.50   66.93 16.06 67.57 13.72 69.92 Z"
     stroke="none"
     fill="#505050" />
  <path
     id="path17812"
     d=" M14.06 70.27 C16.27 68.06 20.45 67.46 23.41   68.94 C26.35 70.41 26.95 73.40 24.75 75.61 S18.36 78.41 15.42 76.94 C12.45 75.46   11.86 72.48 14.07 70.27 Z"
     stroke="none"
     fill="#a00000" />
  <path
     id="path17814"
     d=" M14.84 69.66 C16.73 67.77 20.30 67.26   22.83 68.52 C25.34 69.78 25.85 72.33 23.97 74.22 S18.51 76.62 16.00 75.36 C13.46   74.10 12.95 71.54 14.85 69.66 Z"
     stroke="none"
     fill="url(#XMLID_4_)" />
  <path
     id="path17816"
     d=" M15.98 70.23 C17.40 68.81 20.07 68.43   21.97 69.37 C23.86 70.32 24.24 72.23 22.84 73.65 C21.42 75.07 18.74 75.45 16.86   74.50 C14.94 73.56 14.56 71.64 15.99 70.23 Z"
     stroke="none"
     fill="url(#XMLID_5_)" />
  <path
     id="path17818"
     d=" M42.02 58.80 C49.83 50.99 64.60 48.88 75.02   54.09 C85.43 59.31 87.54 69.87 79.73 77.67 C71.92 85.48 57.15 87.59 46.75 82.38   C36.32 77.17 34.21 66.61 42.03 58.80 Z"
     stroke="none"
     fill="#000000" />
  <path
     id="path17820"
     d=" M42.40 58.39 C50.05 50.74 64.53 48.67 74.74   53.78 C84.94 58.89 87.00 69.23 79.36 76.89 C71.70 84.54 57.23 86.61 47.04 81.50   C36.81 76.39 34.74 66.04 42.41 58.39 Z"
     stroke="none"
     fill="#101010" />
  <path
     id="path17822"
     d=" M42.77 57.98 C50.27 50.48 64.45 48.46 74.45   53.46 S86.46 68.60 78.96 76.10 S57.28 85.62 47.29 80.62 C37.30 75.61 35.28 65.48   42.78 57.98 Z"
     stroke="none"
     fill="#202020" />
  <path
     id="path17824"
     d=" M43.15 57.56 C50.49 50.22 64.38 48.24 74.17   53.14 C83.96 58.04 85.94 67.96 78.60 75.31 C71.26 82.65 57.38 84.63 47.60 79.73   C37.79 74.83 35.81 64.91 43.16 57.56 Z"
     stroke="none"
     fill="#303030" />
  <path
     id="path17826"
     d=" M43.53 57.15 C50.71 49.97 64.30 48.03 73.89   52.83 C83.46 57.62 85.40 67.33 78.23 74.52 C71.04 81.71 57.45 83.64 47.89 78.85   C38.28 74.05 36.34 64.34 43.54 57.15 Z"
     stroke="none"
     fill="#404040" />
  <path
     id="path17828"
     d=" M43.90 56.74 C50.93 49.71 64.23 47.82 73.61   52.51 C82.96 57.20 84.86 66.70 77.84 73.73 C70.81 80.76 57.52 82.66 48.16 77.96   C38.77 73.27 36.88 63.77 43.91 56.74 Z"
     stroke="none"
     fill="#505050" />
  <path
     fill="#404040"
     stroke="none"
     id="path17830"
     d=" M44.28 57.13 C51.16 50.26 64.15 48.40 73.32   52.99 C82.48 57.58 84.34 66.87 77.47 73.74 C70.60 80.61 57.60 82.47 48.45 77.88   C39.26 73.29 37.41 64.00 44.29 57.13 Z" />
  <path
     id="path17832"
     d=" M44.66 57.52 C51.38 50.80 64.08 48.99 73.04   53.47 C81.99 57.96 83.80 67.04 77.10 73.75 C70.38 80.47 57.68 82.28 48.74 77.80   C39.75 73.32 37.94 64.24 44.67 57.52 Z"
     stroke="none"
     fill="#303030" />
  <path
     id="path17834"
     d=" M45.04 57.91 C51.60 51.35 64.00 49.58 72.76   53.96 C81.50 58.34 83.27 67.20 76.72 73.77 C70.16 80.33 57.75 82.10 49.02 77.72   C40.24 73.34 38.47 64.47 45.05 57.91 Z"
     stroke="none"
     fill="#202020" />
  <path
     id="path17836"
     d=" M45.41 58.30 C51.82 51.89 63.93 50.17 72.47   54.44 C81.01 58.71 82.74 67.37 76.34 73.78 C69.94 80.18 57.82 81.91 49.30 77.63   C40.74 73.36 39.01 64.70 45.42 58.30 Z"
     stroke="none"
     fill="#101010" />
  <path
     id="path17838"
     d=" M45.79 58.69 C52.04 52.44 63.85 50.75 72.19   54.92 C80.52 59.09 82.20 67.54 75.97 73.79 C69.72 80.04 57.90 81.72 49.59 77.55   C41.23 73.38 39.54 64.94 45.80 58.69 Z"
     stroke="none"
     fill="#000000" />
  <path
     id="path17840"
     d=" M45.79 58.69 C52.04 52.44 63.85 50.75 72.19   54.92 C80.52 59.09 82.20 67.54 75.97 73.79 C69.72 80.04 57.90 81.72 49.59 77.55   C41.23 73.38 39.54 64.94 45.80 58.69 Z"
     stroke="none"
     fill="#000000" />
  <path
     id="path17842"
     d=" M46.09 58.24 C52.22 52.11 63.79 50.46 71.96   54.55 C80.12 58.64 81.78 66.91 75.66 73.04 C69.54 79.16 57.96 80.81 49.81 76.72   C41.62 72.64 39.97 64.36 46.10 58.24 Z"
     stroke="none"
     fill="#101010" />
  <path
     id="path17844"
     d=" M46.39 57.79 C52.39 51.79 63.73 50.17 71.74   54.18 C79.73 58.18 81.35 66.29 75.36 72.29 C69.36 78.28 58.02 79.90 50.03 75.90   C42.01 71.90 40.40 63.79 46.40 57.79 Z"
     stroke="none"
     fill="#202020" />
  <path
     id="path17846"
     d=" M46.69 57.34 C52.57 51.47 63.67 49.88 71.51   53.80 S80.92 65.66 75.05 71.53 C69.18 77.41 58.07 78.99 50.25 75.07 C42.40 71.15   40.82 63.21 46.70 57.34 Z"
     stroke="none"
     fill="#303030" />
  <path
     id="path17848"
     d=" M47.00 56.89 C52.74 51.14 63.61 49.59 71.28   53.43 C78.94 57.26 80.50 65.03 74.76 70.78 C69.01 76.53 58.14 78.08 50.49 74.24   C42.80 70.41 41.25 62.64 47.01 56.89 Z"
     stroke="none"
     fill="#404040" />
  <path
     id="path17850"
     d=" M47.30 56.44 C52.92 50.82 63.56 49.30 71.06   53.06 C78.55 56.81 80.07 64.41 74.46 70.03 C68.83 75.66 58.20 77.17 50.72 73.42   C43.19 69.67 41.67 62.06 47.31 56.44 Z"
     stroke="none"
     fill="#505050" />
  <path
     id="path17852"
     d=" M47.75 56.87 C53.19 51.43 63.47 49.97 70.72   53.59 C77.97 57.22 79.43 64.57 74.00 70.01 C68.57 75.44 58.29 76.91 51.05 73.28   C43.78 69.65 42.31 62.31 47.76 56.87 Z"
     stroke="none"
     fill="#404040" />
  <path
     id="path17854"
     d=" M48.20 57.29 C53.45 52.04 63.38 50.63 70.38   54.13 C77.38 57.63 78.79 64.73 73.55 69.98 C68.30 75.23 58.38 76.64 51.39 73.14   C44.37 69.64 42.95 62.54 48.21 57.29 Z"
     stroke="none"
     fill="#303030" />
  <path
     id="path17856"
     d=" M48.65 57.72 C53.72 52.66 63.29 51.29 70.04   54.67 C76.79 58.05 78.15 64.89 73.10 69.95 C68.04 75.02 58.47 76.38 51.73 73.00   C44.96 69.62 43.59 62.78 48.66 57.72 Z"
     stroke="none"
     fill="#202020" />
  <path
     id="path17858"
     d=" M49.11 58.15 C53.98 53.27 63.20 51.96 69.70   55.21 C76.19 58.46 77.51 65.05 72.65 69.92 C67.77 74.80 58.56 76.11 52.07 72.86   C45.55 69.61 44.23 63.02 49.12 58.15 Z"
     stroke="none"
     fill="#101010" />
  <path
     id="path17860"
     d=" M49.56 58.57 C54.25 53.89 63.11 52.62 69.36   55.75 C75.61 58.88 76.87 65.21 72.19 69.90 C67.50 74.59 58.64 75.85 52.41 72.72   C46.14 69.59 44.87 63.26 49.57 58.57 Z"
     stroke="none"
     fill="#000000" />
  <path
     id="path17862"
     d=" M49.56 58.57 C54.25 53.89 63.11 52.62 69.36   55.75 C75.61 58.88 76.87 65.21 72.19 69.90 C67.50 74.59 58.64 75.85 52.41 72.72   C46.14 69.59 44.87 63.26 49.57 58.57 Z"
     stroke="none"
     fill="#000000" />
  <path
     id="path17864"
     d=" M49.78 58.09 C54.38 53.50 63.06 52.26 69.19   55.32 C75.31 58.38 76.55 64.59 71.97 69.19 C67.38 73.78 58.69 75.02 52.58 71.95   C46.43 68.89 45.19 62.68 49.79 58.09 Z"
     stroke="none"
     fill="#101010" />
  <path
     id="path17866"
     d=" M50.01 57.60 C54.51 53.10 63.02 51.89 69.02   54.89 C75.02 57.89 76.23 63.98 71.74 68.47 C67.24 72.97 58.73 74.19 52.75 71.18   C46.73 68.18 45.51 62.10 50.02 57.60 Z"
     stroke="none"
     fill="#202020" />
  <path
     fill="#303030"
     stroke="none"
     id="path17868"
     d=" M50.24 57.11 C54.64 52.71 62.97 51.52 68.85   54.46 C74.72 57.40 75.91 63.36 71.52 67.76 C67.11 72.16 58.78 73.35 52.92 70.41   S45.83 61.52 50.24 57.11 Z" />
  <path
     id="path17870"
     d=" M50.46 56.63 C54.78 52.32 62.93 51.15 68.68   54.03 C74.43 56.91 75.59 62.74 71.29 67.04 C66.98 71.36 58.83 72.52 53.09 69.64   C47.31 66.77 46.15 60.94 50.47 56.63 Z"
     stroke="none"
     fill="#404040" />
  <path
     id="path17872"
     d=" M50.69 56.14 C54.91 51.92 62.88 50.79 68.51   53.60 C74.14 56.41 75.27 62.12 71.07 66.33 C66.85 70.55 58.87 71.69 53.26 68.87   C47.61 66.06 46.47 60.36 50.70 56.14 Z"
     stroke="none"
     fill="#505050" />
  <path
     id="path17874"
     d=" M51.22 56.60 C55.22 52.60 62.78 51.53 68.12   54.19 C73.45 56.86 74.53 62.27 70.54 66.27 C66.54 70.27 58.98 71.35 53.66 68.67   C48.30 66.01 47.22 60.60 51.23 56.60 Z"
     stroke="none"
     fill="#404040" />
  <path
     id="path17876"
     d=" M51.75 57.07 C55.53 53.29 62.67 52.27 67.72   54.79 C72.76 57.31 73.78 62.42 70.01 66.21 C66.23 69.99 59.08 71.01 54.05 68.48   C48.99 65.96 47.97 60.85 51.76 57.07 Z"
     stroke="none"
     fill="#303030" />
  <path
     id="path17878"
     d=" M52.27 57.53 C55.83 53.97 62.57 53.01 67.32   55.39 C72.07 57.76 73.03 62.58 69.48 66.14 C65.92 69.70 59.18 70.66 54.45 68.29   S48.71 61.10 52.27 57.53 Z"
     stroke="none"
     fill="#202020" />
  <path
     id="path17880"
     d=" M52.80 58.00 C56.14 54.65 62.46 53.75 66.93   55.98 C71.39 58.21 72.29 62.73 68.95 66.08 C65.61 69.42 59.29 70.32 54.85 68.09   C50.36 65.86 49.46 61.34 52.81 58.00 Z"
     stroke="none"
     fill="#101010" />
  <path
     id="path17882"
     d=" M53.33 58.46 C56.45 55.34 62.36 54.49 66.53   56.58 C70.70 58.66 71.54 62.89 68.43 66.01 C65.30 69.14 59.39 69.98 55.24 67.89   C51.05 65.81 50.21 61.59 53.34 58.46 Z"
     stroke="none"
     fill="#000000" />
  <path
     id="path17884"
     d=" M56.22 2.62 C56.22 2.62 56.53 2.31 56.85 2.00   C58.22 2.06 65.36 2.40 66.99 2.48 C67.81 3.81 70.62 8.45 71.08 9.20 C71.08 10.28   71.08 60.83 71.09 62.10 C70.80 62.54 70.50 62.97 70.13 63.36 C66.36 67.13 58.90   68.17 53.85 65.63 C52.50 64.96 51.47 64.05 50.75 63.03 C50.75 61.68 50.75 9.75   50.76 8.16 C51.64 7.20 56.22 2.62 56.22 2.62 Z"
     stroke="none"
     fill="#000000" />
  <path
     id="path17886"
     d=" M64.11 14.71 V55.73 V68.48 C65.76 67.98 67.27   67.15 68.42 66.01 C68.66 65.77 68.87 65.52 69.07 65.26 L69.07 58.55 V9.76 L64.11   14.71 Z"
     stroke="none"
     fill="#303030" />
  <path
     id="path17888"
     d=" M55.92 14.32 V56.66 V68.21 C58.44 69.23   61.46 69.28 64.11 68.48 L64.11 55.73 V14.71 L55.92 14.32 Z"
     stroke="none"
     fill="url(#XMLID_6_)" />
  <path
     id="path17890"
     d=" M52.68 8.99 V59.21 V65.92 C53.30 66.69 54.15   67.36 55.22 67.89 C55.45 68.01 55.69 68.11 55.94 68.21 L55.94 56.66 V14.32 L52.68   8.99 Z"
     stroke="none"
     fill="#686868" />
  <path
     id="path17892"
     d=" M52.68 59.21 V65.92 C53.30 66.69 54.15   67.36 55.22 67.89 C55.45 68.01 55.69 68.11 55.94 68.21 C58.46 69.23 61.48 69.28   64.14 68.48 C65.79 67.98 67.30 67.15 68.45 66.01 C68.69 65.77 68.90 65.52 69.10   65.26 L69.10 58.55 V40.74 H52.68 V59.21 Z"
     stroke="none"
     fill="url(#XMLID_7_)" />
  <path
     id="path17894"
     d=" M65.82 4.42 L69.05 9.76 L64.10 14.71 L55.92   14.32 L52.68 8.99 L57.63 4.04 L65.82 4.42 Z"
     stroke="none"
     fill="#606060" />
  <path
     id="path17896"
     d=" M55.54 6.70 C57.75 4.49 61.92 3.90 64.88 5.37   C67.82 6.85 68.42 9.83 66.22 12.04 C64.01 14.25 59.83 14.85 56.90 13.37 C53.92   11.90 53.33 8.91 55.55 6.70 Z"
     stroke="none"
     fill="#686868" />
</svg>
